<svg width="179" height="197" viewBox="0 0 179 197" fill="none" xmlns="http://www.w3.org/2000/svg">
<path d="M30.442 0.632147C23.671 1.76065 22.9187 2.51298 22.3545 7.7793C21.7902 13.0456 20.8498 13.986 15.3954 14.9265C11.8218 15.6788 8.62439 16.8073 8.06014 17.5596C5.99123 20.9451 -1.15593 115.363 0.160654 121.946L1.47724 129.093L15.0192 127.588C39.8462 124.767 65.2374 126.084 75.3939 130.598C86.3027 135.3 92.6975 135.488 100.785 131.538C111.694 126.084 133.135 124.203 154.765 126.836C165.674 127.964 175.078 128.717 176.018 128.152C176.959 127.588 178.087 124.015 178.84 120.065C180.156 111.977 173.009 26.7757 170.564 20.3809C169.624 18.1239 166.614 15.8669 163.229 15.1145C158.715 14.1741 157.398 12.8575 157.398 9.47205C157.398 2.32489 152.696 0.255981 136.145 0.255981C115.832 0.0678979 104.547 3.45339 95.8949 12.2933L88.9359 19.2524L83.6695 13.0456C80.6602 9.84822 75.2058 5.71039 71.2561 4.20573C62.7923 0.82023 41.1628 -1.0606 30.442 0.632147ZM66.3659 10.6005C73.1369 12.6695 81.2245 20.569 83.8576 27.9042C85.1742 31.1016 85.9265 49.1576 85.9265 71.7275C85.9265 103.137 85.3623 110.096 83.2934 110.096C81.9768 110.096 79.7198 108.968 78.5913 107.463C74.4535 102.573 54.1405 95.0498 39.0938 92.7928L23.8591 90.7239V83.9529C23.8591 80.1913 25.1757 62.6996 26.6804 45.2078C28.185 27.528 29.5016 12.2933 29.5016 10.9767C29.5016 6.65081 53.012 6.46272 66.3659 10.6005ZM142.54 7.7793L149.311 8.9078L151.568 41.2581C152.696 58.9379 154.201 77.37 154.765 82.0721L155.893 90.912L144.044 92.2286C127.117 94.1094 110.377 99.7519 101.349 106.335L93.4499 111.977V70.0348C93.4499 29.2208 93.6379 27.7161 97.7758 21.5094C102.666 14.1741 109.061 10.6005 121.286 8.53164C133.135 6.65081 134.64 6.46272 142.54 7.7793ZM19.9094 30.5374C19.9094 34.4871 18.7809 50.2861 17.4643 65.897C16.1477 81.3198 15.3954 95.0498 15.7715 95.9903C16.1477 97.1188 24.4234 98.9996 34.2037 100.128C47.3695 101.633 55.0809 103.702 63.9208 108.028C70.3156 111.225 73.513 113.482 70.8799 112.918C68.2467 112.353 60.3472 110.473 53.012 108.968C44.9244 107.087 33.6394 106.335 23.8591 106.711C10.5052 107.087 7.87206 106.899 8.24823 104.454C8.43631 102.949 9.94097 84.141 11.8218 62.5115C14.2669 32.9824 15.7715 23.5783 17.6524 23.5783C19.3451 23.5783 20.0975 26.0234 19.9094 30.5374ZM163.793 31.4778C165.109 40.8819 170.564 100.692 170.564 104.83C170.564 106.899 167.555 107.275 154.201 106.711C141.975 106.147 133.512 106.899 121.662 109.72C112.822 111.789 105.487 113.294 105.299 113.106C104.923 112.918 108.497 110.849 113.01 108.404C122.415 103.89 143.292 98.8115 154.201 98.8115C158.715 98.8115 161.724 97.8711 162.288 95.9903C163.417 93.169 160.219 42.0104 158.15 29.5969C157.398 25.0829 157.962 23.5783 160.031 23.5783C161.912 23.5783 163.229 26.2114 163.793 31.4778Z" fill="#610BEF"/>
<path d="M14.3977 184.446C15.7397 184.732 16.8177 185.403 17.6317 186.459C18.4457 187.493 18.8527 188.681 18.8527 190.023C18.8527 191.959 18.1707 193.499 16.8067 194.643C15.4647 195.765 13.5837 196.326 11.1637 196.326H0.37266V173.16H10.8007C13.1547 173.16 14.9917 173.699 16.3117 174.777C17.6537 175.855 18.3247 177.318 18.3247 179.166C18.3247 180.53 17.9617 181.663 17.2357 182.565C16.5317 183.467 15.5857 184.094 14.3977 184.446ZM6.01566 182.532H9.71166C10.6357 182.532 11.3397 182.334 11.8237 181.938C12.3297 181.52 12.5827 180.915 12.5827 180.123C12.5827 179.331 12.3297 178.726 11.8237 178.308C11.3397 177.89 10.6357 177.681 9.71166 177.681H6.01566V182.532ZM10.1737 191.772C11.1197 191.772 11.8457 191.563 12.3517 191.145C12.8797 190.705 13.1437 190.078 13.1437 189.264C13.1437 188.45 12.8687 187.812 12.3187 187.35C11.7907 186.888 11.0537 186.657 10.1077 186.657H6.01566V191.772H10.1737Z" fill="#610BEF"/>
<path d="M31.5076 196.59C29.7036 196.59 28.0756 196.205 26.6236 195.435C25.1936 194.665 24.0606 193.565 23.2246 192.135C22.4106 190.705 22.0036 189.033 22.0036 187.119C22.0036 185.227 22.4216 183.566 23.2576 182.136C24.0936 180.684 25.2376 179.573 26.6896 178.803C28.1416 178.033 29.7696 177.648 31.5736 177.648C33.3776 177.648 35.0056 178.033 36.4576 178.803C37.9096 179.573 39.0536 180.684 39.8896 182.136C40.7256 183.566 41.1436 185.227 41.1436 187.119C41.1436 189.011 40.7146 190.683 39.8566 192.135C39.0206 193.565 37.8656 194.665 36.3916 195.435C34.9396 196.205 33.3116 196.59 31.5076 196.59ZM31.5076 191.706C32.5856 191.706 33.4986 191.31 34.2466 190.518C35.0166 189.726 35.4016 188.593 35.4016 187.119C35.4016 185.645 35.0276 184.512 34.2796 183.72C33.5536 182.928 32.6516 182.532 31.5736 182.532C30.4736 182.532 29.5606 182.928 28.8346 183.72C28.1086 184.49 27.7456 185.623 27.7456 187.119C27.7456 188.593 28.0976 189.726 28.8016 190.518C29.5276 191.31 30.4296 191.706 31.5076 191.706Z" fill="#610BEF"/>
<path d="M53.5193 196.59C51.7153 196.59 50.0873 196.205 48.6353 195.435C47.2053 194.665 46.0723 193.565 45.2363 192.135C44.4223 190.705 44.0153 189.033 44.0153 187.119C44.0153 185.227 44.4333 183.566 45.2693 182.136C46.1053 180.684 47.2493 179.573 48.7013 178.803C50.1533 178.033 51.7813 177.648 53.5853 177.648C55.3893 177.648 57.0173 178.033 58.4693 178.803C59.9213 179.573 61.0653 180.684 61.9013 182.136C62.7373 183.566 63.1553 185.227 63.1553 187.119C63.1553 189.011 62.7263 190.683 61.8683 192.135C61.0323 193.565 59.8773 194.665 58.4033 195.435C56.9513 196.205 55.3233 196.59 53.5193 196.59ZM53.5193 191.706C54.5973 191.706 55.5103 191.31 56.2583 190.518C57.0283 189.726 57.4133 188.593 57.4133 187.119C57.4133 185.645 57.0393 184.512 56.2913 183.72C55.5653 182.928 54.6633 182.532 53.5853 182.532C52.4853 182.532 51.5723 182.928 50.8463 183.72C50.1203 184.49 49.7573 185.623 49.7573 187.119C49.7573 188.593 50.1093 189.726 50.8133 190.518C51.5393 191.31 52.4413 191.706 53.5193 191.706Z" fill="#610BEF"/>
<path d="M78.402 196.326L72.792 188.604V196.326H67.149V171.906H72.792V185.403L78.369 177.912H85.332L77.676 187.152L85.398 196.326H78.402Z" fill="#610BEF"/>
<path d="M96.9304 196.557C95.2364 196.557 93.7184 196.282 92.3764 195.732C91.0344 195.182 89.9564 194.368 89.1424 193.29C88.3504 192.212 87.9324 190.914 87.8884 189.396H93.8944C93.9824 190.254 94.2794 190.914 94.7854 191.376C95.2914 191.816 95.9514 192.036 96.7654 192.036C97.6014 192.036 98.2614 191.849 98.7454 191.475C99.2294 191.079 99.4714 190.54 99.4714 189.858C99.4714 189.286 99.2734 188.813 98.8774 188.439C98.5034 188.065 98.0304 187.757 97.4584 187.515C96.9084 187.273 96.1164 186.998 95.0824 186.69C93.5864 186.228 92.3654 185.766 91.4194 185.304C90.4734 184.842 89.6594 184.16 88.9774 183.258C88.2954 182.356 87.9544 181.179 87.9544 179.727C87.9544 177.571 88.7354 175.888 90.2974 174.678C91.8594 173.446 93.8944 172.83 96.4024 172.83C98.9544 172.83 101.011 173.446 102.573 174.678C104.135 175.888 104.971 177.582 105.081 179.76H98.9764C98.9324 179.012 98.6574 178.429 98.1514 178.011C97.6454 177.571 96.9964 177.351 96.2044 177.351C95.5224 177.351 94.9724 177.538 94.5544 177.912C94.1364 178.264 93.9274 178.781 93.9274 179.463C93.9274 180.211 94.2794 180.794 94.9834 181.212C95.6874 181.63 96.7874 182.081 98.2834 182.565C99.7794 183.071 100.989 183.555 101.913 184.017C102.859 184.479 103.673 185.15 104.355 186.03C105.037 186.91 105.378 188.043 105.378 189.429C105.378 190.749 105.037 191.948 104.355 193.026C103.695 194.104 102.727 194.962 101.451 195.6C100.175 196.238 98.6684 196.557 96.9304 196.557Z" fill="#610BEF"/>
<path d="M120.114 191.541V196.326H117.243C115.197 196.326 113.602 195.831 112.458 194.841C111.314 193.829 110.742 192.19 110.742 189.924V182.598H108.498V177.912H110.742V173.424H116.385V177.912H120.081V182.598H116.385V189.99C116.385 190.54 116.517 190.936 116.781 191.178C117.045 191.42 117.485 191.541 118.101 191.541H120.114Z" fill="#610BEF"/>
<path d="M132.639 196.59C130.835 196.59 129.207 196.205 127.755 195.435C126.325 194.665 125.192 193.565 124.356 192.135C123.542 190.705 123.135 189.033 123.135 187.119C123.135 185.227 123.553 183.566 124.389 182.136C125.225 180.684 126.369 179.573 127.821 178.803C129.273 178.033 130.901 177.648 132.705 177.648C134.509 177.648 136.137 178.033 137.589 178.803C139.041 179.573 140.185 180.684 141.021 182.136C141.857 183.566 142.275 185.227 142.275 187.119C142.275 189.011 141.846 190.683 140.988 192.135C140.152 193.565 138.997 194.665 137.523 195.435C136.071 196.205 134.443 196.59 132.639 196.59ZM132.639 191.706C133.717 191.706 134.63 191.31 135.378 190.518C136.148 189.726 136.533 188.593 136.533 187.119C136.533 185.645 136.159 184.512 135.411 183.72C134.685 182.928 133.783 182.532 132.705 182.532C131.605 182.532 130.692 182.928 129.966 183.72C129.24 184.49 128.877 185.623 128.877 187.119C128.877 188.593 129.229 189.726 129.933 190.518C130.659 191.31 131.561 191.706 132.639 191.706Z" fill="#610BEF"/>
<path d="M151.912 180.981C152.572 179.969 153.397 179.177 154.387 178.605C155.377 178.011 156.477 177.714 157.687 177.714V183.687H156.136C154.728 183.687 153.672 183.995 152.968 184.611C152.264 185.205 151.912 186.261 151.912 187.779V196.326H146.269V177.912H151.912V180.981Z" fill="#610BEF"/>
<path d="M178.742 186.822C178.742 187.35 178.709 187.9 178.643 188.472H165.872C165.96 189.616 166.323 190.496 166.961 191.112C167.621 191.706 168.424 192.003 169.37 192.003C170.778 192.003 171.757 191.409 172.307 190.221H178.313C178.005 191.431 177.444 192.52 176.63 193.488C175.838 194.456 174.837 195.215 173.627 195.765C172.417 196.315 171.064 196.59 169.568 196.59C167.764 196.59 166.158 196.205 164.75 195.435C163.342 194.665 162.242 193.565 161.45 192.135C160.658 190.705 160.262 189.033 160.262 187.119C160.262 185.205 160.647 183.533 161.417 182.103C162.209 180.673 163.309 179.573 164.717 178.803C166.125 178.033 167.742 177.648 169.568 177.648C171.35 177.648 172.934 178.022 174.32 178.77C175.706 179.518 176.784 180.585 177.554 181.971C178.346 183.357 178.742 184.974 178.742 186.822ZM172.967 185.337C172.967 184.369 172.637 183.599 171.977 183.027C171.317 182.455 170.492 182.169 169.502 182.169C168.556 182.169 167.753 182.444 167.093 182.994C166.455 183.544 166.059 184.325 165.905 185.337H172.967Z" fill="#610BEF"/>
</svg>
